<svg id="Capa_1" xmlns="http://www.w3.org/2000/svg" viewBox="0 0 391.14 400.09">
    <defs>
        <style>.cls-1{fill:#ff9171;}.cls-2{fill:#b7eabc;}</style>
    </defs>
    <title>LogoSVG</title>
    <circle class="cls-1" cx="195.52" cy="204.53" r="119.07"/>
    <circle class="cls-2" cx="68.57" cy="331.52" r="21.12"/>
    <circle class="cls-2" cx="68.57" cy="331.52" r="21.12"/>
    <circle class="cls-2" cx="195.57" cy="371.99" r="18.1"/>
    <circle class="cls-2" cx="195.57" cy="371.99" r="18.1"/>
    <circle class="cls-2" cx="195.55" cy="32.62" r="22.58"/>
    <circle class="cls-2" cx="195.55" cy="32.62" r="22.58"/>
    <circle class="cls-2" cx="28.08" cy="204.6" r="18.1"/>
    <circle class="cls-2" cx="28.08" cy="204.6" r="18.1"/>
    <circle class="cls-2" cx="362.97" cy="204.55" r="18.1" transform="translate(-38.32 316.57) rotate(-45)"/>
    <circle class="cls-2" cx="362.97" cy="204.55" r="18.1" transform="translate(-38.32 316.57) rotate(-45)"/>
    <circle class="cls-2" cx="314.57" cy="323.66" r="21.12"/>
    <circle class="cls-2" cx="314.57" cy="323.66" r="21.12"/>
    <circle class="cls-2" cx="140.89" cy="204.52" r="21.12"/>
    <circle class="cls-2" cx="140.89" cy="204.52" r="21.12"/>
    <circle class="cls-2" cx="216.77" cy="162.32" r="21.12"/>
    <circle class="cls-2" cx="216.77" cy="162.32" r="21.12"/>
    <circle class="cls-2" cx="208.18" cy="259.2" r="21.12"/>
    <circle class="cls-2" cx="208.18" cy="259.2" r="21.12"/>
    <circle class="cls-2" cx="75.82" cy="84.77" r="21.12"/>
    <circle class="cls-2" cx="75.82" cy="84.77" r="21.12"/>
    <circle class="cls-2" cx="326.6" cy="73.46" r="21.13" transform="translate(-3.24 130.66) rotate(-22.51)"/>
    <circle class="cls-2" cx="326.6" cy="73.46" r="21.13" transform="translate(-3.24 130.66) rotate(-22.51)"/>
    <path d="M363,176.42a28.15,28.15,0,0,0-26.26,18.1H324.29a128,128,0,0,0-10.16-41.15,10,10,0,0,0-18.36,7.93,109,109,0,0,1-16.35,112.93l-6.29-6.29A10,10,0,0,0,259,282.08l6.29,6.29a108.84,108.84,0,0,1-139.41,0l1-1a10,10,0,1,0-14.14-14.15l-1,1a108.87,108.87,0,0,1,0-139.41L120,143a10,10,0,1,0,14.14-14.14l-8.23-8.23a109.1,109.1,0,0,1,112.53-16.52,10,10,0,0,0,7.85-18.39,127.73,127.73,0,0,0-40.67-10V63.58a32.58,32.58,0,1,0-20,0V75.82a128.5,128.5,0,0,0-73.89,30.67l-8-8a31.15,31.15,0,1,0-14.14,14.14l8,8a128.58,128.58,0,0,0-30.68,73.89H54.36a28.11,28.11,0,1,0,0,20h12.5a128.54,128.54,0,0,0,30.68,73.9l-15.21,15.2a31.15,31.15,0,1,0,14.14,14.14l15.21-15.2a128.57,128.57,0,0,0,73.89,30.67v12.5a28.11,28.11,0,1,0,20,0v-12.5a128.54,128.54,0,0,0,73.89-30.67l7.3,7.29a31.11,31.11,0,1,0,14.14-14.14l-7.29-7.29a128.6,128.6,0,0,0,30.67-73.9h12.5A28.1,28.1,0,1,0,363,176.42ZM195.57,20A12.58,12.58,0,1,1,183,32.58,12.59,12.59,0,0,1,195.57,20ZM75.82,95.89A11.12,11.12,0,1,1,86.94,84.77,11.13,11.13,0,0,1,75.82,95.89ZM28.11,212.63a8.11,8.11,0,1,1,8.1-8.11A8.12,8.12,0,0,1,28.11,212.63Zm40.46,130A11.13,11.13,0,1,1,79.7,331.52,11.14,11.14,0,0,1,68.57,342.65Zm127,37.45a8.11,8.11,0,1,1,8.11-8.11,8.11,8.11,0,0,1-8.11,8.11Zm119.1-67.61a11.13,11.13,0,1,1-11.13,11.13A11.14,11.14,0,0,1,314.67,312.49ZM363,212.63a8.11,8.11,0,1,1,8.11-8.11A8.11,8.11,0,0,1,363,212.63Z"/>
    <path d="M109.77,204.52a31.13,31.13,0,1,0,31.12-31.12A31.16,31.16,0,0,0,109.77,204.52Zm42.25,0a11.13,11.13,0,1,1-11.13-11.12A11.14,11.14,0,0,1,152,204.52Z"/>
    <path d="M216.82,131.16a31.12,31.12,0,1,0,31.12,31.12A31.15,31.15,0,0,0,216.82,131.16Zm0,42.24a11.12,11.12,0,1,1,11.12-11.12A11.13,11.13,0,0,1,216.82,173.4Z"/>
    <path d="M208.18,228.08A31.12,31.12,0,1,0,239.3,259.2,31.15,31.15,0,0,0,208.18,228.08Zm0,42.24A11.12,11.12,0,1,1,219.3,259.2,11.13,11.13,0,0,1,208.18,270.32Z"/>
    <path d="M326.53,104.69a31.12,31.12,0,1,0-31.12-31.12A31.15,31.15,0,0,0,326.53,104.69Zm0-42.24a11.12,11.12,0,1,1-11.12,11.12A11.13,11.13,0,0,1,326.53,62.45Z"/>
    <path d="M279.61,130.15a10,10,0,1,0-7.07-2.93A10.08,10.08,0,0,0,279.61,130.15Z"/>
</svg>
