<svg id="Capa_1" xmlns="http://www.w3.org/2000/svg" viewBox="0 0 512 512">
    <defs>
        <style>.cls-1{fill:#ff9171;}.cls-2{fill:#b7eabc;}</style>
    </defs>
    <title>LogoWithTextBSVG</title>
    <circle class="cls-1" cx="255.74" cy="204.54" r="119.07"/>
    <circle class="cls-2" cx="128.79" cy="331.53" r="21.12"/>
    <circle class="cls-2" cx="128.79" cy="331.53" r="21.12"/>
    <circle class="cls-2" cx="255.79" cy="372" r="18.1"/>
    <circle class="cls-2" cx="255.79" cy="372" r="18.1"/>
    <circle class="cls-2" cx="255.76" cy="32.63" r="22.58"/>
    <circle class="cls-2" cx="255.76" cy="32.63" r="22.58"/>
    <circle class="cls-2" cx="88.29" cy="204.6" r="18.1"/>
    <circle class="cls-2" cx="88.29" cy="204.6" r="18.1"/>
    <circle class="cls-2" cx="423.19" cy="204.56" r="18.1" transform="translate(-20.69 359.15) rotate(-45)"/>
    <circle class="cls-2" cx="423.19" cy="204.56" r="18.1" transform="translate(-20.69 359.15) rotate(-45)"/>
    <circle class="cls-2" cx="374.79" cy="323.66" r="21.12"/>
    <circle class="cls-2" cx="374.79" cy="323.66" r="21.12"/>
    <circle class="cls-2" cx="201.11" cy="204.53" r="21.12"/>
    <circle class="cls-2" cx="201.11" cy="204.53" r="21.12"/>
    <circle class="cls-2" cx="276.98" cy="162.32" r="21.12"/>
    <circle class="cls-2" cx="276.98" cy="162.32" r="21.12"/>
    <circle class="cls-2" cx="268.4" cy="259.21" r="21.12"/>
    <circle class="cls-2" cx="268.4" cy="259.21" r="21.12"/>
    <circle class="cls-2" cx="136.03" cy="84.78" r="21.12"/>
    <circle class="cls-2" cx="136.03" cy="84.78" r="21.12"/>
    <circle class="cls-2" cx="386.81" cy="73.46" r="21.13" transform="translate(1.35 153.71) rotate(-22.51)"/>
    <circle class="cls-2" cx="386.81" cy="73.46" r="21.13" transform="translate(1.35 153.71) rotate(-22.51)"/>
    <path d="M279.12,420a10,10,0,0,0-10,10v72a10,10,0,0,0,20,0V430A10,10,0,0,0,279.12,420Z"/>
    <path d="M58,487.44A18.24,18.24,0,0,1,45.35,492C31.37,492,20,480.33,20,466s11.37-26,25.35-26a24.77,24.77,0,0,1,12.59,3.44A10,10,0,0,0,68.1,426.19,44.91,44.91,0,0,0,45.35,420C20.34,420,0,440.63,0,466s20.34,46,45.35,46a38.17,38.17,0,0,0,26.12-9.74A10,10,0,0,0,58,487.44Z"/>
    <path d="M242.28,420.64A10,10,0,0,0,229.63,427L213.9,474.33l-16.52-47.62a10,10,0,0,0-18.9,6.56l24.64,71a11.64,11.64,0,0,0,11,7.73h.07A11.64,11.64,0,0,0,225.1,504l23.51-70.76a10,10,0,0,0-6.33-12.64Z"/>
    <path d="M131.21,420.07A34.77,34.77,0,0,0,96.47,454.8v22.46a34.74,34.74,0,0,0,69.47,0V454.8a34.77,34.77,0,0,0-34.73-34.73Zm14.73,57.19a14.74,14.74,0,0,1-29.47,0V454.8a14.74,14.74,0,0,1,29.47,0Z"/>
    <path d="M417,420H404.39a10,10,0,0,0,0,20H407v62a10,10,0,0,0,20,0V430A10,10,0,0,0,417,420Z"/>
    <path d="M512,451.4a30.82,30.82,0,1,0-31.31,30.81,57.44,57.44,0,0,1-10.54,11.6,10,10,0,0,0,12,16c1-.77,25.24-19.15,29.49-53.57A31.15,31.15,0,0,0,512,451.4Zm-41.64,0a10.82,10.82,0,1,1,10.82,10.82A10.83,10.83,0,0,1,470.36,451.4Z"/>
    <path d="M423.26,176.43A28.14,28.14,0,0,0,397,194.53H384.5a127.75,127.75,0,0,0-10.15-41.15A10,10,0,0,0,356,161.31a109.11,109.11,0,0,1-16.35,112.93l-6.3-6.29a10,10,0,0,0-14.14,14.14l6.3,6.29a108.85,108.85,0,0,1-139.42,0l1-1a10,10,0,0,0-14.14-14.15l-1,1a108.85,108.85,0,0,1,0-139.42l8.22,8.23a10,10,0,1,0,14.14-14.14l-8.22-8.23A109.09,109.09,0,0,1,298.6,104.16a10,10,0,0,0,7.86-18.39,127.86,127.86,0,0,0-40.67-10V63.59a32.58,32.58,0,1,0-20,0V75.82a128.61,128.61,0,0,0-73.9,30.68l-7.95-8a31.18,31.18,0,1,0-14.15,14.14l8,8a128.57,128.57,0,0,0-30.67,73.89h-12.5a28.11,28.11,0,1,0,0,20h12.5a128.54,128.54,0,0,0,30.67,73.89l-15.2,15.21a31.15,31.15,0,1,0,14.14,14.14l15.2-15.2a128.6,128.6,0,0,0,73.9,30.67v12.5a28.1,28.1,0,1,0,20,0v-12.5a128.57,128.57,0,0,0,73.89-30.67l7.3,7.29a31.15,31.15,0,1,0,14.14-14.14l-7.3-7.3a128.47,128.47,0,0,0,30.67-73.89H397a28.1,28.1,0,1,0,26.27-38.1ZM255.79,20a12.58,12.58,0,1,1-12.58,12.58A12.59,12.59,0,0,1,255.79,20ZM136,95.9a11.12,11.12,0,1,1,11.13-11.12A11.13,11.13,0,0,1,136,95.9ZM88.32,212.64a8.11,8.11,0,1,1,8.11-8.11A8.11,8.11,0,0,1,88.32,212.64Zm40.47,130a11.13,11.13,0,1,1,11.12-11.13A11.14,11.14,0,0,1,128.79,342.66Zm127,37.44a8.1,8.1,0,1,1,8.1-8.1,8.11,8.11,0,0,1-8.1,8.1Zm119.09-67.6a11.13,11.13,0,1,1-11.12,11.13A11.14,11.14,0,0,1,374.88,312.5Zm48.38-99.86a8.11,8.11,0,1,1,8.1-8.11A8.12,8.12,0,0,1,423.26,212.64Z"/>
    <path d="M170,204.53a31.12,31.12,0,1,0,31.12-31.12A31.15,31.15,0,0,0,170,204.53Zm42.24,0a11.12,11.12,0,1,1-11.12-11.12A11.13,11.13,0,0,1,212.23,204.53Z"/>
    <path d="M277,131.17a31.12,31.12,0,1,0,31.12,31.12A31.16,31.16,0,0,0,277,131.17Zm0,42.24a11.12,11.12,0,1,1,11.12-11.12A11.14,11.14,0,0,1,277,173.41Z"/>
    <path d="M268.4,228.09a31.12,31.12,0,1,0,31.12,31.12A31.16,31.16,0,0,0,268.4,228.09Zm0,42.24a11.12,11.12,0,1,1,11.12-11.12A11.14,11.14,0,0,1,268.4,270.33Z"/>
    <path d="M386.74,104.7a31.12,31.12,0,1,0-31.12-31.12A31.15,31.15,0,0,0,386.74,104.7Zm0-42.24a11.12,11.12,0,1,1-11.12,11.12A11.14,11.14,0,0,1,386.74,62.46Z"/>
    <path d="M339.83,130.16a10,10,0,1,0-7.07-2.93A10.08,10.08,0,0,0,339.83,130.16Z"/>
    <path d="M335.32,420h-16.2a10,10,0,0,0-10,10v72a10.13,10.13,0,0,0,3.11,7.06,10,10,0,0,0,7,2.9h.05c.44,0,11-.06,16.77-.16,22.19-.39,38.3-19.67,38.3-45.84,0-27.51-15.7-46-39.07-46Zm.42,71.85-6.51.08c0-8.45-.08-43.13-.09-51.93h6.18c17.7,0,19.07,19.9,19.07,26C354.39,478.69,348.63,491.61,335.74,491.84Z"/>
</svg>
